# xmcd
#
# Track frame offsets: 
#        150
#        26112
#        50987
#
# Disc length: 1070 seconds
#
# Revision: 2
# Processed by: cddbd v1.5.2PL0 Copyright (c) Steve Scherf et al.
# Submitted via: ExactAudioCopy v0.99pb4
#
DISCID=27042c03
DTITLE=B.G. The Prince Of Rap - This Beat Is Hot (Remixes)
DYEAR=1991
DGENRE=Rap
TTITLE0=This Beat Is Hot (Hard 'N' Heavy-Mix)
TTITLE1=This Beat Is Hot (E-Dub)
TTITLE2=This Beat Is Hot (Clubmix)
EXTD=
EXTT0=
EXTT1=
EXTT2=
PLAYORDER=
